<svg xmlns="http://www.w3.org/2000/svg" version="1.1" viewBox="-5.0 -10.0 110.0 135.0">
 <path d="m61.535 10.738 0.19922-0.4375c0.41797-0.91406 0.39062-1.9531-0.070313-2.8477-0.45703-0.875-1.2617-1.4805-2.2266-1.6641-6.1289-1.1484-12.742-1.1484-18.875 0-0.96094 0.18359-1.7656 0.78906-2.2227 1.6641-0.46094 0.89453-0.49219 1.9336-0.070313 2.8477l0.19922 0.4375c-18.594 5.1289-31.453 21.887-31.453 41.355 0 23.703 19.281 42.984 42.984 42.984s42.984-19.281 42.984-42.984c0-19.469-12.859-36.227-31.449-41.355zm-20.84-2.0664c0.054688-0.10156 0.16016-0.23438 0.35156-0.27344 2.9102-0.54297 5.9219-0.82031 8.9531-0.82031s6.043 0.27734 8.9453 0.82422c0.19531 0.039062 0.30469 0.16797 0.35547 0.27344 0.039063 0.078125 0.125 0.28906 0.015625 0.52734l-9.3164 20.461-9.3164-20.465c-0.11328-0.23828-0.023438-0.44531 0.011718-0.52734zm-18.125 60.805 13.949-8.0508c2.7266 3.9258 7.1289 6.5391 12.152 6.9492v16.164c-10.977-0.44141-20.555-6.3359-26.102-15.062zm25.363-37.938c0.16797 0.36719 0.42969 0.66016 0.73828 0.88281v3.3789c-5.0234 0.41406-9.4297 3.0273-12.152 6.9531l-13.953-8.0508c4.5039-7.0977 11.684-12.379 20.293-14.316zm15.832 20.555c0 7.5898-6.1797 13.766-13.766 13.766s-13.766-6.1797-13.766-13.766c0-7.5898 6.1719-13.762 13.758-13.77 0.003906 0 0.007812 0.003906 0.007812 0.003906 0.003906 0 0.007812-0.003906 0.007812-0.003906 7.5859 0.007812 13.758 6.1797 13.758 13.77zm-42.531-15.09 13.98 8.0664c-1.0195 2.1367-1.6367 4.5-1.6367 7.0234s0.61719 4.8828 1.6367 7.0234l-13.988 8.0703c-2.3789-4.5156-3.7422-9.6484-3.7422-15.094 0-5.4102 1.3633-10.547 3.75-15.09zm30.094 31.379c5.0234-0.41016 9.4258-3.0273 12.152-6.9492l13.949 8.0508c-5.5508 8.7266-15.129 14.617-26.102 15.066zm27.445-1.1953-13.992-8.0703c1.0234-2.1367 1.6367-4.5 1.6367-7.0234s-0.61719-4.8828-1.6367-7.0234l13.98-8.0664c2.3867 4.543 3.75 9.6797 3.75 15.09 0.003906 5.4453-1.3594 10.578-3.7383 15.094zm-15.293-24.43c-2.7266-3.9258-7.1289-6.543-12.152-6.9531v-3.3789c0.30859-0.22656 0.57031-0.51953 0.73828-0.88672l5.0742-11.148c8.6094 1.9414 15.793 7.2227 20.293 14.316zm-13.48 49.664c-22.238 0-40.328-18.09-40.328-40.328 0-18.406 12.25-34.238 29.906-38.914l2.1641 4.7539c-9.5234 2.2969-17.406 8.3789-22.125 16.469-0.023438 0.035156-0.058594 0.054687-0.082032 0.089844-0.015625 0.023437-0.011718 0.054687-0.023437 0.078124-2.9922 5.1953-4.6797 11.195-4.6797 17.523 0 6.3242 1.7031 12.25 4.6367 17.383 0.023438 0.070313 0.03125 0.14844 0.070312 0.21094 0.039063 0.0625 0.10156 0.089844 0.14844 0.14844 6.1172 10.406 17.398 17.426 30.316 17.426 12.918 0 24.199-7.0195 30.316-17.426 0.042969-0.054688 0.10938-0.082032 0.14844-0.14844 0.039062-0.070312 0.046875-0.14453 0.070312-0.21094 2.9336-5.1328 4.6367-11.059 4.6367-17.383 0-6.3281-1.6953-12.328-4.6797-17.523-0.011719-0.023437-0.011719-0.054687-0.023438-0.078124-0.023437-0.039063-0.054687-0.054688-0.082031-0.089844-4.7188-8.0898-12.602-14.172-22.121-16.473l2.1641-4.7539c17.656 4.6797 29.906 20.508 29.906 38.914-0.011719 22.242-18.102 40.332-40.34 40.332z"/>
 <path d="m57.305 47.945-3.7812-0.54687-1.6953-3.4297c-0.33984-0.70312-1.0625-1.0234-1.832-1.1406-0.78125 0-1.4844 0.4375-1.832 1.1367l-1.6914 3.4297-3.7734 0.54688c-0.77734 0.11328-1.4141 0.64844-1.6523 1.3945-0.24219 0.74609-0.042969 1.5508 0.51953 2.0977l2.7305 2.6641-0.64844 3.7695c-0.13281 0.76953 0.17969 1.5352 0.80859 1.9961 0.63672 0.46484 1.4648 0.52344 2.1562 0.16016l3.3828-1.7773 3.3828 1.7773c0.30469 0.16016 0.62891 0.23828 0.95312 0.23828 0.42188 0 0.83984-0.13281 1.1992-0.39453 0.63281-0.46094 0.94531-1.2266 0.8125-1.9961l-0.64453-3.7695 2.7383-2.668c0.5625-0.54688 0.75781-1.3516 0.51562-2.0938-0.23828-0.74219-0.87109-1.2812-1.6484-1.3945zm-3.6875 4.4727c-0.48438 0.46484-0.70703 1.1445-0.58984 1.8086l0.48828 2.8633-2.5625-1.3516c-0.59766-0.3125-1.3047-0.3125-1.9062 0l-2.5664 1.3516 0.49219-2.8633c0.11328-0.66406-0.10547-1.3438-0.58594-1.8047l-2.0781-2.0234 2.8672-0.41406c0.66406-0.097656 1.2422-0.51562 1.5391-1.1172l1.2852-2.6016 1.2891 2.6016c0.29688 0.60156 0.87109 1.0234 1.5391 1.1172l2.8711 0.41406z"/>
<text x="0.0" y="117.5" font-size="5.0" font-weight="bold" font-family="Arbeit Regular, Helvetica, Arial-Unicode, Arial, Sans-serif" fill="#000000">Created by Rikas Dzihab</text><text x="0.0" y="122.5" font-size="5.0" font-weight="bold" font-family="Arbeit Regular, Helvetica, Arial-Unicode, Arial, Sans-serif" fill="#000000">from Noun Project</text></svg>